<?xml version="1.0" encoding="utf-8"?>
<!-- Generator: Adobe Illustrator 22.1.0, SVG Export Plug-In . SVG Version: 6.00 Build 0)  -->
<svg version="1.1" xmlns="http://www.w3.org/2000/svg" xmlns:xlink="http://www.w3.org/1999/xlink" x="0px" y="0px"
	 viewBox="0 0 237.7 72" style="enable-background:new 0 0 237.7 72;" xml:space="preserve">
<style type="text/css">
	.st0{fill:#0668B3;}
	.st1{fill:#0055B8;}
</style>
<g>
</g>
<g>
</g>
<g>
</g>
<g>
</g>
<g>
</g>
<g>
</g>
<g>
</g>
<g>
</g>
<g>
</g>
<g id="Layer_10">
	<g>
		<polygon class="st1" points="64,72 47.2,72 43.9,40 20.9,72 0,72 55.6,0 64,72 		"/>
		<path class="st1" d="M226,72l-8.9-27.9l20.6-24.9h-19.4l-18.2,23.5l8.1,29.3H226 M190.7,72l16.2-52.9h-17.2L173.5,72H190.7"/>
		<path class="st1" d="M111.7,51.5c5.8-1.7,10.5-6.3,12.2-12.1 M111.7,51.5c5.8-1.7,10.5-6.3,12.2-12.1 M123.9,39.4
			c0.4-1.4,0.7-3.1,0.7-4.6l0,0l0,0C124.6,36.3,124.4,38,123.9,39.4 M92.4,42.6l8.2,29.5h17.6l-6.4-20.5c5.8-1.7,10.5-6.3,12.2-12.1
			c0.4-1.4,0.7-3.1,0.7-4.6c0-8.6-7-15.6-15.6-15.6l0,0H81.8L65.5,72h16.8L95,32l7.3,0c3.2,0.2,4.9,2,4.9,4.1
			c-0.2,3.7-4.6,6.4-8.4,6.5L92.4,42.6"/>
		<path class="st1" d="M165.8,51.5c5.8-1.7,10.5-6.3,12.2-12.1 M165.8,51.5c5.8-1.7,10.5-6.3,12.2-12.1 M178,39.4
			c0.4-1.4,0.7-3.1,0.7-4.6l0,0l0,0C178.7,36.3,178.5,38,178,39.4 M146.5,42.6l8.2,29.5h17.6l-6.4-20.5c5.8-1.7,10.5-6.3,12.2-12.1
			c0.4-1.4,0.7-3.1,0.7-4.6c0-8.6-7-15.6-15.6-15.6l0,0h-27.2L119.6,72h16.8l12.6-40l7.3,0c3.2,0.2,4.9,2,4.9,4.1
			c-0.2,3.7-4.6,6.4-8.4,6.5L146.5,42.6"/>
	</g>
</g>
</svg>
